<?xml version="1.0" encoding="UTF-8" standalone="no"?>
<!-- Created with Inkscape (http://www.inkscape.org/) -->

<svg
   xmlns:dc="http://purl.org/dc/elements/1.1/"
   xmlns:cc="http://creativecommons.org/ns#"
   xmlns:rdf="http://www.w3.org/1999/02/22-rdf-syntax-ns#"
   xmlns:svg="http://www.w3.org/2000/svg"
   xmlns="http://www.w3.org/2000/svg"
   xmlns:sodipodi="http://sodipodi.sourceforge.net/DTD/sodipodi-0.dtd"
   xmlns:inkscape="http://www.inkscape.org/namespaces/inkscape"
   width="175.56378mm"
   height="43.10463mm"
   viewBox="0 0 175.56378 43.10463"
   version="1.1"
   id="svg8"
   sodipodi:docname="wiggle paragraph.svg"
   inkscape:version="0.92.4 (5da689c313, 2019-01-14)">
  <defs
     id="defs2" />
  <sodipodi:namedview
     id="base"
     pagecolor="#ffffff"
     bordercolor="#666666"
     borderopacity="1.0"
     inkscape:pageopacity="0.0"
     inkscape:pageshadow="2"
     inkscape:zoom="0.98994949"
     inkscape:cx="370.24512"
     inkscape:cy="-20.159418"
     inkscape:document-units="mm"
     inkscape:current-layer="layer1"
     showgrid="false"
     inkscape:window-width="1680"
     inkscape:window-height="986"
     inkscape:window-x="0"
     inkscape:window-y="27"
     inkscape:window-maximized="1"
     fit-margin-top="0"
     fit-margin-left="0"
     fit-margin-right="0"
     fit-margin-bottom="0" />
  <metadata
     id="metadata5">
    <rdf:RDF>
      <cc:Work
         rdf:about="">
        <dc:format>image/svg+xml</dc:format>
        <dc:type
           rdf:resource="http://purl.org/dc/dcmitype/StillImage" />
        <dc:title></dc:title>
      </cc:Work>
    </rdf:RDF>
  </metadata>
  <g
     inkscape:label="Layer 1"
     inkscape:groupmode="layer"
     id="layer1"
     transform="translate(-7.8096992,-166.52709)">
    <path
       style="fill:none;stroke:#000000;stroke-width:1.0231185;stroke-linecap:butt;stroke-linejoin:miter;stroke-miterlimit:4;stroke-dasharray:none;stroke-opacity:1"
       d="m 8.55259,173.52107 c 6.609422,-2.46111 14.539475,-1.25664 20.280913,2.44845 3.757789,-1.28618 7.422905,-5.83411 11.097274,-1.27995 4.219227,-1.33209 7.908311,-1.98953 11.823551,-0.25324 7.32704,1.14263 14.112201,-5.71833 20.431851,0.60927 2.484374,2.13165 8.687323,7.4156 8.924711,0.87764 5.251211,-1.01107 12.057666,-6.49283 16.356793,-2.13581 6.903097,6.02831 13.670237,-0.0939 19.680957,-3.32147 5.92112,-7.7701 12.01941,1.81451 18.50724,3.40632 4.29968,2.22534 8.57706,3.67244 12.0555,0.33229 6.36165,0.38185 12.3718,0.63707 18.36391,-1.73422 4.05482,-0.27364 7.58725,3.67812 9.78635,-1.56643 3.67499,-4.61061 4.25676,2.32571 6.94293,3.68479"
       id="path874"
       inkscape:connector-curvature="0" />
    <path
       style="fill:none;stroke:#000000;stroke-width:1;stroke-linecap:butt;stroke-linejoin:miter;stroke-miterlimit:4;stroke-dasharray:none;stroke-opacity:1"
       d="m 8.0180856,190.62135 c 4.5780214,2.57994 11.1703424,1.01323 12.7014024,-3.63193 6.28627,2.57249 12.203009,7.12241 19.367069,3.84219 7.255031,-1.89439 14.396425,-0.57367 21.422238,1.21094 7.050802,1.50219 11.476443,-8.52246 18.152173,-2.48044 4.958494,3.10529 5.186457,-5.10479 10.402259,-1.05898 5.375098,-2.95937 12.823243,2.6725 17.171993,0.17515 2.48597,-3.26618 7.8727,0.70621 10.60786,-2.18747 5.45851,3.14161 11.51846,3.03945 15.8105,-1.36996 2.81707,7.24984 10.05446,5.55643 15.59089,2.38814 4.8796,-0.69139 12.41194,4.01318 13.77924,-1.44892 6.80728,1.46771 13.19907,4.47503 20.32318,2.69039"
       id="path876"
       inkscape:connector-curvature="0" />
    <path
       style="fill:none;stroke:#000000;stroke-width:0.90011811;stroke-linecap:butt;stroke-linejoin:miter;stroke-miterlimit:4;stroke-dasharray:none;stroke-opacity:1"
       d="m 8.4980692,207.76135 c 2.1243778,-9.62934 10.3832278,1.86034 14.6204968,-0.0234 2.599082,-4.23849 6.774197,-7.12485 11.102392,-3.09865 5.5973,0.77303 12.275084,-2.51705 15.743501,3.67334 5.057403,4.10717 5.019972,-9.65096 9.868898,-2.55807 3.716607,4.92577 5.747362,-0.76385 7.256613,-3.41805 3.946262,0.30549 7.915618,1.83294 10.715314,-2.56329 5.1262,-0.68313 7.674162,11.32698 14.107446,7.34415 1.001267,-5.34526 6.120896,-1.44692 9.18794,-4.88075 2.95685,4.03118 7.86022,-0.53111 8.23024,-1.31843 2.09287,4.78362 7.06849,0.41608 10.30214,3.65549 1.54468,0.28177 3.10266,-0.29618 4.38356,-1.12505"
       id="path878"
       inkscape:connector-curvature="0" />
  </g>
</svg>
