<?xml version="1.0" encoding="UTF-8" standalone="no"?>
<svg
   xmlns:dc="http://purl.org/dc/elements/1.1/"
   xmlns:cc="http://creativecommons.org/ns#"
   xmlns:rdf="http://www.w3.org/1999/02/22-rdf-syntax-ns#"
   xmlns:svg="http://www.w3.org/2000/svg"
   xmlns="http://www.w3.org/2000/svg"
   xmlns:sodipodi="http://sodipodi.sourceforge.net/DTD/sodipodi-0.dtd"
   xmlns:inkscape="http://www.inkscape.org/namespaces/inkscape"
   id="svg2108"
   version="1.1"
   viewBox="0 0 4.2333332 4.2333332"
   height="16"
   width="16"
   sodipodi:docname="encryption-key-plain.svg"
   inkscape:version="0.92.4 (5da689c313, 2019-01-14)">
  <sodipodi:namedview
     pagecolor="#ffffff"
     bordercolor="#666666"
     borderopacity="1"
     objecttolerance="10"
     gridtolerance="10"
     guidetolerance="10"
     inkscape:pageopacity="0"
     inkscape:pageshadow="2"
     inkscape:window-width="1680"
     inkscape:window-height="986"
     id="namedview2743"
     showgrid="false"
     inkscape:zoom="47.0625"
     inkscape:cx="8"
     inkscape:cy="8"
     inkscape:window-x="0"
     inkscape:window-y="27"
     inkscape:window-maximized="1"
     inkscape:current-layer="svg2108" />
  <defs
     id="defs2102" />
  <metadata
     id="metadata2105">
    <rdf:RDF>
      <cc:Work
         rdf:about="">
        <dc:format>image/svg+xml</dc:format>
        <dc:type
           rdf:resource="http://purl.org/dc/dcmitype/StillImage" />
        <dc:title></dc:title>
      </cc:Work>
    </rdf:RDF>
  </metadata>
  <path
     style="fill:#000000;stroke-width:0.00337207"
     d="M 3.1724745,1.0611171 C 3.0898676,1.0609583 3.0636235,1.0661014 3.0000814,1.0775316 2.7522615,1.1172452 2.5104096,1.2499631 2.3515509,1.4469481 2.2705327,1.5533836 2.1945107,1.6892718 2.1627385,1.8163659 l -0.00822,0.032834 H 1.1858377 0.22535573 l -0.0328372,0.00822 c -0.0476574,0.015887 -0.0831578,0.033903 -0.11492915,0.065672 -0.0317718,0.031772 -0.0524886,0.066741 -0.0656739,0.098513 -0.0158873,0.058778 -0.0158873,0.1006413 0,0.164181 0.0301831,0.098492 0.12633448,0.167258 0.22164937,0.1806052 l 0.0328374,0.00822 V 2.514168 c 0.001271,0.1461515 0.001362,0.1488329 0.00821,0.1806052 0.0254171,0.095314 0.0934968,0.1570425 0.18881267,0.1888148 0.031772,0.00966 0.091367,0.00966 0.1231384,0 0.082606,-0.031772 0.1488317,-0.084754 0.1806035,-0.1641859 0.014457,-0.046066 0.016419,-0.052994 0.016419,-0.213439 V 2.3581959 h 0.1313477 0.12313878 v 0.164181 0.1559787 l 0.00821,0.032834 c 0.015887,0.079432 0.067804,0.1241991 0.1313477,0.1559762 0.047657,0.027018 0.108319,0.039364 0.1559738,0.032834 0.1127905,-0.014306 0.1980885,-0.077611 0.2298583,-0.1888148 0.00764,-0.022237 0.00709,-0.021734 0.00822,-0.1806052 V 2.3746056 h 0.2791145 c 0.2208124,0 0.2861953,-0.00333 0.2873233,0 6.201e-4,0 0.00328,0.016942 0.00822,0.032834 0.047657,0.1620436 0.1356079,0.316214 0.2626957,0.4432999 0.2096614,0.1654684 0.2897795,0.2425856 0.6731686,0.3201588 0.04448,0.00412 0.1739889,-0.00217 0.2216461,-0.00822 C 3.543727,3.1309061 3.7593627,3.0289133 3.9277528,2.8589349 4.0993192,2.6921322 4.1915139,2.4865624 4.2232857,2.2514519 4.2310736,2.1942647 4.2362735,2.0933478 4.2315049,2.0298033 4.2044608,1.6946177 4.0216805,1.3950147 3.7389121,1.2170929 3.6912544,1.1853211 3.5977571,1.1426769 3.5500996,1.126791 3.4261892,1.0791336 3.3154469,1.061276 3.1724745,1.0611171 Z m -0.024628,0.5089741 c 0.076254,0 0.1088509,0.016942 0.1723931,0.032834 0.071486,0.031772 0.1334799,0.067805 0.1970221,0.1313473 0.095317,0.085787 0.1486316,0.192541 0.1641859,0.3037437 0.0057,0.049244 6.867e-4,0.1247312 -0.00822,0.1723956 C 3.6573406,2.313665 3.6048906,2.4018841 3.5254613,2.4813164 3.376877,2.6219088 3.3017436,2.6372166 3.0575269,2.6208731 2.8287709,2.5779797 2.6542091,2.3930876 2.6224373,2.1611556 2.6172374,2.121442 2.6222425,2.0446293 2.6306566,1.9969697 2.6465439,1.8921229 2.690784,1.8054974 2.7702135,1.726065 2.8448765,1.646633 2.9299159,1.594169 3.0411184,1.5782985 c 0.031772,-0.00685 0.043178,-0.00836 0.1067207,-0.00822 z"
     id="path8084"
     inkscape:connector-curvature="0"
     sodipodi:nodetypes="ccccccccccccccccccscccccccccccscccccccccccccccccccccccc" />
</svg>
