<?xml version="1.0" encoding="UTF-8" standalone="no"?>
<svg
   xmlns:dc="http://purl.org/dc/elements/1.1/"
   xmlns:cc="http://creativecommons.org/ns#"
   xmlns:rdf="http://www.w3.org/1999/02/22-rdf-syntax-ns#"
   xmlns:svg="http://www.w3.org/2000/svg"
   xmlns="http://www.w3.org/2000/svg"
   xmlns:sodipodi="http://sodipodi.sourceforge.net/DTD/sodipodi-0.dtd"
   xmlns:inkscape="http://www.inkscape.org/namespaces/inkscape"
   id="svg2108"
   version="1.1"
   viewBox="0 0 4.2333332 4.2333332"
   height="16"
   width="16"
   sodipodi:docname="lock-open-side.svg"
   inkscape:version="0.92.4 (5da689c313, 2019-01-14)">
  <sodipodi:namedview
     pagecolor="#ffffff"
     bordercolor="#666666"
     borderopacity="1"
     objecttolerance="10"
     gridtolerance="10"
     guidetolerance="10"
     inkscape:pageopacity="0"
     inkscape:pageshadow="2"
     inkscape:window-width="1680"
     inkscape:window-height="986"
     id="namedview2743"
     showgrid="false"
     inkscape:zoom="47.0625"
     inkscape:cx="12.237662"
     inkscape:cy="6.8717859"
     inkscape:window-x="0"
     inkscape:window-y="27"
     inkscape:window-maximized="1"
     inkscape:current-layer="svg2108" />
  <defs
     id="defs2102" />
  <metadata
     id="metadata2105">
    <rdf:RDF>
      <cc:Work
         rdf:about="">
        <dc:format>image/svg+xml</dc:format>
        <dc:type
           rdf:resource="http://purl.org/dc/dcmitype/StillImage" />
        <dc:title />
      </cc:Work>
    </rdf:RDF>
  </metadata>
  <path
     inkscape:connector-curvature="0"
     style="fill:#000000;stroke-width:0.26458332"
     d="m 2.6458334,1.8517526 c 0.2645833,0 0.5291664,0.2645833 0.5291664,0.5291666 v 1.0583333 c 0,0.2645834 -0.2645831,0.5291667 -0.5291664,0.5291667 H 0.5291666 C 0.2645834,3.9684192 0,3.7038359 0,3.4392525 V 2.3809192 C 0,2.1163359 0.2645833,1.8517526 0.5291666,1.8517526 c 0.5556337,0 1.4751697,0 2.1166668,0 z"
     id="path6690"
     sodipodi:nodetypes="csssssscc" />
  <path
     style="fill:#000000;stroke-width:1"
     d="m 12,1.0019531 c -2.0000006,0 -4,1.3310935 -4,3.9960938 v 4 h 2 v -4 c 0,-2.6700006 4,-2.6700006 4,0 v 2 h 2 v -2 C 16,2.3330466 14.000001,1.0019531 12,1.0019531 Z"
     transform="scale(0.26458333)"
     id="path6690-4"
     inkscape:connector-curvature="0"
     sodipodi:nodetypes="ssccssccss" />
</svg>
