<?xml version="1.0" encoding="UTF-8" standalone="no"?>
<!-- This Source Code Form is subject to the terms of the Mozilla Public
   - License, v. 2.0. If a copy of the MPL was not distributed with this
   - file, You can obtain one at http://mozilla.org/MPL/2.0/. -->

<svg
   xmlns:dc="http://purl.org/dc/elements/1.1/"
   xmlns:cc="http://creativecommons.org/ns#"
   xmlns:rdf="http://www.w3.org/1999/02/22-rdf-syntax-ns#"
   xmlns:svg="http://www.w3.org/2000/svg"
   xmlns="http://www.w3.org/2000/svg"
   xmlns:sodipodi="http://sodipodi.sourceforge.net/DTD/sodipodi-0.dtd"
   xmlns:inkscape="http://www.inkscape.org/namespaces/inkscape"
   width="16"
   height="16"
   viewBox="0 0 16 16"
   fill="context-fill"
   version="1.1"
   id="svg4"
   sodipodi:docname="seal-plain.svg"
   inkscape:version="0.92.4 (5da689c313, 2019-01-14)">
  <metadata
     id="metadata10">
    <rdf:RDF>
      <cc:Work
         rdf:about="">
        <dc:format>image/svg+xml</dc:format>
        <dc:type
           rdf:resource="http://purl.org/dc/dcmitype/StillImage" />
        <dc:title></dc:title>
      </cc:Work>
    </rdf:RDF>
  </metadata>
  <defs
     id="defs8" />
  <sodipodi:namedview
     pagecolor="#ffffff"
     bordercolor="#666666"
     borderopacity="1"
     objecttolerance="10"
     gridtolerance="10"
     guidetolerance="10"
     inkscape:pageopacity="0"
     inkscape:pageshadow="2"
     inkscape:window-width="1680"
     inkscape:window-height="986"
     id="namedview6"
     showgrid="false"
     inkscape:zoom="14.75"
     inkscape:cx="-5.6949153"
     inkscape:cy="8"
     inkscape:window-x="0"
     inkscape:window-y="27"
     inkscape:window-maximized="1"
     inkscape:current-layer="svg4" />
  <path
     d="M7.86 0c-.4 0-1.23 1.06-1.62 1.19-.38.12-1.7-.2-2.03.03-.32.24-.35 1.55-.58 1.88-.23.32-1.5.8-1.62 1.17-.12.38.67 1.46.68 1.85 0 .39-.73 1.5-.6 1.86.14.37 1.44.8 1.68 1.11.25.31.34 1.62.67 1.84.33.23 1.64-.16 2.03-.05.39.12 1.26 1.13 1.67 1.12.4 0 1.23-1.06 1.62-1.19.38-.12 1.7.2 2.03-.03.32-.24.35-1.55.58-1.88.23-.32 1.5-.8 1.62-1.17.11-.38-.67-1.46-.68-1.85 0-.39.73-1.5.6-1.86-.14-.37-1.44-.8-1.68-1.11-.25-.31-.34-1.62-.67-1.84-.33-.23-1.64.16-2.03.05C9.14 1 8.27-.01 7.86 0zm.09 3A3 3 0 018 3a3 3 0 013 3 3 3 0 01-3 3 3 3 0 01-3-3 3 3 0 012.95-3zM6.29 12.15c-.08-.04-.17-.1-.22-.11-.4-.08-1.64.41-2 .22-.35-.2-.6-1.51-.88-1.8a1.46 1.46 0 00-.4-.24L.53 14l2.23.13L4 16zM13.27 10.1c-.07.04-.16.08-.2.13-.27.3-.46 1.62-.8 1.83s-1.62-.23-2.01-.13c-.1.03-.25.12-.41.23L12 16l1.23-1.87 2.23-.13z"
     id="path2" />
  <path
     inkscape:connector-curvature="0"
     d="m 7.865,3.6892975e-5 c -0.4,0 -1.23,1.060000107025 -1.62,1.190000107025 -0.38,0.12 -1.7,-0.20000014 -2.03,0.03 -0.32,0.24 -0.35,1.55 -0.58,1.88 -0.23,0.32 -1.5,0.8 -1.62,1.17 -0.12,0.38 0.67,1.46 0.68,1.85 0,0.39 -0.73,1.5 -0.6,1.86 0.14,0.37 1.44,0.8 1.68,1.11 0.25,0.31 0.34,1.62 0.67,1.84 0.33,0.23 1.64,-0.16 2.03,-0.05 0.39,0.12 1.26,1.13 1.67,1.12 0.4,0 1.23,-1.06 1.62,-1.19 0.38,-0.12 1.7,0.2 2.03,-0.03 0.32,-0.24 0.35,-1.55 0.58,-1.88 0.23,-0.32 1.5,-0.8 1.62,-1.17 0.11,-0.38 -0.67,-1.46 -0.68,-1.85 0,-0.39 0.73,-1.5 0.6,-1.86 -0.14,-0.37 -1.44,-0.8 -1.68,-1.11 -0.25,-0.31 -0.34,-1.62 -0.67,-1.84 -0.33,-0.23000014 -1.64,0.16 -2.03,0.05 -0.39,-0.12 -1.26,-1.13000011 -1.67,-1.120000107025 z M 7.955,3.000037 a 3,3 0 0 1 0.05,0 3,3 0 0 1 3,3 3,3 0 0 1 -3,3 3,3 0 0 1 -3,-3 3,3 0 0 1 2.95,-3 z m -1.66,9.15 c -0.08,-0.04 -0.17,-0.1 -0.22,-0.11 -0.4,-0.08 -1.64,0.41 -2,0.22 -0.35,-0.2 -0.6,-1.51 -0.88,-1.8 a 1.46,1.46 0 0 0 -0.4,-0.24 l -2.26,3.78 2.23,0.13 1.24,1.87 z m 6.98,-2.05 c -0.07,0.04 -0.16,0.08 -0.2,0.13 -0.27,0.3 -0.46,1.62 -0.8,1.83 -0.34,0.21 -1.62,-0.23 -2.01,-0.13 -0.1,0.03 -0.25,0.12 -0.41,0.23 l 2.15,3.84 1.23,-1.87 2.23,-0.13 z"
     id="path2-5"
     style="fill:#000000" />
</svg>
