<?xml version="1.0" encoding="UTF-8" standalone="no"?>
<svg
   xmlns:dc="http://purl.org/dc/elements/1.1/"
   xmlns:cc="http://creativecommons.org/ns#"
   xmlns:rdf="http://www.w3.org/1999/02/22-rdf-syntax-ns#"
   xmlns:svg="http://www.w3.org/2000/svg"
   xmlns="http://www.w3.org/2000/svg"
   xmlns:sodipodi="http://sodipodi.sourceforge.net/DTD/sodipodi-0.dtd"
   xmlns:inkscape="http://www.inkscape.org/namespaces/inkscape"
   id="svg2108"
   version="1.1"
   viewBox="0 0 4.2333332 4.2333332"
   height="16"
   width="16"
   sodipodi:docname="attach.svg"
   inkscape:version="0.92.4 (5da689c313, 2019-01-14)">
  <sodipodi:namedview
     pagecolor="#ffffff"
     bordercolor="#666666"
     borderopacity="1"
     objecttolerance="10"
     gridtolerance="10"
     guidetolerance="10"
     inkscape:pageopacity="0"
     inkscape:pageshadow="2"
     inkscape:window-width="840"
     inkscape:window-height="986"
     id="namedview2743"
     showgrid="false"
     inkscape:zoom="14.75"
     inkscape:cx="8"
     inkscape:cy="8"
     inkscape:window-x="840"
     inkscape:window-y="27"
     inkscape:window-maximized="0"
     inkscape:current-layer="svg2108" />
  <defs
     id="defs2102" />
  <metadata
     id="metadata2105">
    <rdf:RDF>
      <cc:Work
         rdf:about="">
        <dc:format>image/svg+xml</dc:format>
        <dc:type
           rdf:resource="http://purl.org/dc/dcmitype/StillImage" />
        <dc:title />
      </cc:Work>
    </rdf:RDF>
  </metadata>
  <path
     inkscape:connector-curvature="0"
     d="M 1.3229166,0.79383907 V 3.175089 a 0.79375,0.79375 0 0 0 1.5875,0 V 0.92613077 a 0.13229166,0.13229166 0 1 1 0.2645833,0 V 3.175089 a 1.0583333,1.0583333 0 1 1 -2.1166666,0 V 0.79383907 a 0.79374997,0.79374997 0 1 1 1.5874999,0 V 2.9105057 a 0.52916665,0.52916665 0 1 1 -1.0583333,0 V 1.4552974 a 0.1322917,0.1322917 0 0 1 0.2645834,0 v 1.4552083 a 0.26458333,0.26458333 0 0 0 0.5291666,0 V 0.79383907 a 0.52916665,0.52916665 0 1 0 -1.0583333,0 z"
     id="path890"
     style="stroke-width:0.26458332" />
</svg>
