<?xml version="1.0" encoding="UTF-8" standalone="no"?>
<!-- This Source Code Form is subject to the terms of the Mozilla Public
   - License, v. 2.0. If a copy of the MPL was not distributed with this
   - file, You can obtain one at http://mozilla.org/MPL/2.0/. -->

<svg
   xmlns:dc="http://purl.org/dc/elements/1.1/"
   xmlns:cc="http://creativecommons.org/ns#"
   xmlns:rdf="http://www.w3.org/1999/02/22-rdf-syntax-ns#"
   xmlns:svg="http://www.w3.org/2000/svg"
   xmlns="http://www.w3.org/2000/svg"
   xmlns:sodipodi="http://sodipodi.sourceforge.net/DTD/sodipodi-0.dtd"
   xmlns:inkscape="http://www.inkscape.org/namespaces/inkscape"
   width="16"
   height="16"
   viewBox="0 0 16 16"
   fill="context-fill"
   version="1.1"
   id="svg4"
   sodipodi:docname="lock-stricked.svg"
   inkscape:version="0.92.4 (5da689c313, 2019-01-14)">
  <metadata
     id="metadata10">
    <rdf:RDF>
      <cc:Work
         rdf:about="">
        <dc:format>image/svg+xml</dc:format>
        <dc:type
           rdf:resource="http://purl.org/dc/dcmitype/StillImage" />
        <dc:title></dc:title>
      </cc:Work>
    </rdf:RDF>
  </metadata>
  <defs
     id="defs8" />
  <sodipodi:namedview
     pagecolor="#ffffff"
     bordercolor="#666666"
     borderopacity="1"
     objecttolerance="10"
     gridtolerance="10"
     guidetolerance="10"
     inkscape:pageopacity="0"
     inkscape:pageshadow="2"
     inkscape:window-width="1680"
     inkscape:window-height="986"
     id="namedview6"
     showgrid="false"
     inkscape:zoom="47.0625"
     inkscape:cx="8"
     inkscape:cy="8"
     inkscape:window-x="0"
     inkscape:window-y="27"
     inkscape:window-maximized="1"
     inkscape:current-layer="svg4" />
  <path
     inkscape:connector-curvature="0"
     style="fill:#000000;stroke-width:1"
     d="m 12,6.9987504 c 1,0 2,0.9999999 2,1.9999998 V 12.99875 c 0,1 -1,2 -2,2 H 4 c -1,0 -2,-1 -2,-2 V 8.9987502 C 2,7.9987503 3,6.9987504 4,6.9987504 V 4.9987502 c 0,-5.33000006 8,-5.33000006 8,0 z m -2,0 V 4.9987502 c 0,-2.6700003 -3.9999998,-2.6700003 -3.9999998,0 v 2.0000002 z"
     id="path6690" />
  <path
     inkscape:connector-curvature="0"
     style="fill:#ff0039"
     d="m 2.0060378,14.993856 a 1,1 0 0 1 -0.707,-1.707 L 13.299037,1.2868556 a 1,1 0 0 1 1.414,1.414 L 2.7130378,14.700856 a 1,1 0 0 1 -0.707,0.293 z"
     id="path4" />
</svg>
