<?xml version="1.0" encoding="UTF-8" standalone="no"?>
<svg
   xmlns:dc="http://purl.org/dc/elements/1.1/"
   xmlns:cc="http://creativecommons.org/ns#"
   xmlns:rdf="http://www.w3.org/1999/02/22-rdf-syntax-ns#"
   xmlns:svg="http://www.w3.org/2000/svg"
   xmlns="http://www.w3.org/2000/svg"
   xmlns:sodipodi="http://sodipodi.sourceforge.net/DTD/sodipodi-0.dtd"
   xmlns:inkscape="http://www.inkscape.org/namespaces/inkscape"
   id="svg2108"
   version="1.1"
   viewBox="0 0 4.2333332 4.2333332"
   height="16"
   width="16"
   sodipodi:docname="lock-open-top.svg"
   inkscape:version="0.92.4 (5da689c313, 2019-01-14)">
  <sodipodi:namedview
     pagecolor="#ffffff"
     bordercolor="#666666"
     borderopacity="1"
     objecttolerance="10"
     gridtolerance="10"
     guidetolerance="10"
     inkscape:pageopacity="0"
     inkscape:pageshadow="2"
     inkscape:window-width="1680"
     inkscape:window-height="986"
     id="namedview2743"
     showgrid="false"
     inkscape:zoom="23.53125"
     inkscape:cx="4.7343983"
     inkscape:cy="8.7149882"
     inkscape:window-x="0"
     inkscape:window-y="27"
     inkscape:window-maximized="1"
     inkscape:current-layer="svg2108" />
  <defs
     id="defs2102" />
  <metadata
     id="metadata2105">
    <rdf:RDF>
      <cc:Work
         rdf:about="">
        <dc:format>image/svg+xml</dc:format>
        <dc:type
           rdf:resource="http://purl.org/dc/dcmitype/StillImage" />
        <dc:title></dc:title>
      </cc:Work>
    </rdf:RDF>
  </metadata>
  <path
     inkscape:connector-curvature="0"
     style="fill:#000000;stroke-width:0.26458332"
     d="m 3.1750001,2.1166666 c 0.2645833,0 0.5291664,0.2645833 0.5291664,0.5291666 v 1.0583333 c 0,0.2645834 -0.2645831,0.5291667 -0.5291664,0.5291667 H 1.0583333 c -0.2645832,0 -0.5291666,-0.2645833 -0.5291666,-0.5291667 V 2.6458332 c 0,-0.2645833 0.2645833,-0.5291666 0.5291666,-0.5291666 0.5556337,0 1.4751697,0 2.1166668,0 z"
     id="path6690"
     sodipodi:nodetypes="csssssscc" />
  <path
     style="fill:#000000;stroke-width:0.26458332"
     d="M 2.1166666,0 C 1.5874998,0 1.0583333,0.35218515 1.0583333,1.0572998 v 1.5875 h 0.5291666 v -1.5875 c 0,-0.70643765 1.0583334,-0.70643765 1.0583334,0 v 1e-7 h 0.5291666 v -1e-7 C 3.1749999,0.35218515 2.6458335,0 2.1166666,0 Z"
     id="path6690-4"
     inkscape:connector-curvature="0"
     sodipodi:nodetypes="ssccssccss" />
</svg>
