<?xml version="1.0" encoding="UTF-8" standalone="no"?>
<svg
   xmlns:dc="http://purl.org/dc/elements/1.1/"
   xmlns:cc="http://creativecommons.org/ns#"
   xmlns:rdf="http://www.w3.org/1999/02/22-rdf-syntax-ns#"
   xmlns:svg="http://www.w3.org/2000/svg"
   xmlns="http://www.w3.org/2000/svg"
   width="16"
   height="16"
   viewBox="0 0 4.2333332 4.2333332"
   version="1.1"
   id="svg2108">
  <defs
     id="defs2102" />
  <metadata
     id="metadata2105">
    <rdf:RDF>
      <cc:Work
         rdf:about="">
        <dc:format>image/svg+xml</dc:format>
        <dc:type
           rdf:resource="http://purl.org/dc/dcmitype/StillImage" />
        <dc:title></dc:title>
      </cc:Work>
    </rdf:RDF>
  </metadata>
  <g
     id="layer1"
     transform="translate(0,-292.76667)" />
  <path
     style="stroke-width:0.26458332"
     id="path4758"
     d="M 2.38125,0.79375002 H 0.79374995 V 3.4395833 H 3.4395833 V 1.5419916 L 2.6913417,0.79375002 H 0.79374995 V 1.5874999 H 2.1166667 A 0.26458333,0.26458333 0 0 0 2.38125,1.3229166 Z M 0.79374995,0.26458332 H 2.6913417 A 0.52916665,0.52916665 0 0 1 3.0654625,0.41962923 L 3.8137041,1.1678708 A 0.52916665,0.52916665 0 0 1 3.9687499,1.5419916 V 3.4395833 A 0.52916665,0.52916665 0 0 1 3.4395833,3.9687499 H 0.79374995 A 0.52916665,0.52916665 0 0 1 0.26458335,3.4395833 V 0.79375002 a 0.52916665,0.52916665 0 0 1 0.5291666,-0.5291667 z M 2.1166667,3.175 a 0.52916667,0.52916667 0 1 1 0,-1.0583334 0.52916667,0.52916667 0 0 1 0,1.0583334 z" />
</svg>
