<?xml version="1.0" encoding="UTF-8" standalone="no"?>
<svg
   xmlns:dc="http://purl.org/dc/elements/1.1/"
   xmlns:cc="http://creativecommons.org/ns#"
   xmlns:rdf="http://www.w3.org/1999/02/22-rdf-syntax-ns#"
   xmlns:svg="http://www.w3.org/2000/svg"
   xmlns="http://www.w3.org/2000/svg"
   id="svg2108"
   version="1.1"
   viewBox="0 0 4.2333332 4.2333332"
   height="16"
   width="16">
  <defs
     id="defs2102" />
  <metadata
     id="metadata2105">
    <rdf:RDF>
      <cc:Work
         rdf:about="">
        <dc:format>image/svg+xml</dc:format>
        <dc:type
           rdf:resource="http://purl.org/dc/dcmitype/StillImage" />
        <dc:title></dc:title>
      </cc:Work>
    </rdf:RDF>
  </metadata>
  <g
     transform="translate(0,-292.76667)"
     id="layer1">
    <path
       id="path1540"
       transform="matrix(0.26458333,0,0,0.26458333,0,292.76667)"
       d="M 7.0429688 1.0078125 C 6.6612186 1.0078125 6.2797812 1.2186219 6.1132812 1.640625 L 1.0429688 13.636719 C 0.53296871 14.636706 2.3930626 15.497403 2.9140625 14.357422 L 4.4941406 10.927734 L 7.0429688 10.927734 C 7.2199677 10.157731 7.7229062 9.5067202 8.2539062 8.9277344 L 5.2832031 8.9277344 L 7.0429688 5.0175781 L 8.6542969 8.5976562 A 3.711 3.711 0 0 1 10.466797 7.7265625 L 7.9746094 1.640625 C 7.8081098 1.2186219 7.4247188 1.0078125 7.0429688 1.0078125 z M 10.466797 7.7265625 L 10.503906 7.8183594 L 10.503906 7.71875 A 3.711 3.711 0 0 0 10.466797 7.7265625 z M 11.542969 8.9921875 C 9.7929691 8.9921875 8.0429686 10.158066 8.0429688 12.498047 C 8.0429688 17.168069 15.042969 17.168069 15.042969 12.498047 C 15.042969 10.158066 13.292969 8.9980469 11.542969 8.9980469 L 11.542969 8.9921875 z M 13.533203 11.013672 C 13.902109 11.017444 14.206875 11.4659 13.921875 11.818359 L 13.923828 11.818359 L 11.423828 14.818359 C 11.263829 15.018296 10.983671 15.057811 10.763672 14.917969 L 9.2636719 13.917969 C 8.6846717 13.547953 9.2642656 12.688116 9.8222656 13.078125 L 10.941406 13.828125 L 13.162109 11.177734 C 13.279609 11.060238 13.410234 11.012415 13.533203 11.013672 z "
       style="stroke-width:0.99999994" />
  </g>
</svg>
