<?xml version="1.0" encoding="UTF-8" standalone="no"?>
<!-- This Source Code Form is subject to the terms of the Mozilla Public
   - License, v. 2.0. If a copy of the MPL was not distributed with this
   - file, You can obtain one at http://mozilla.org/MPL/2.0/. -->

<svg
   xmlns:dc="http://purl.org/dc/elements/1.1/"
   xmlns:cc="http://creativecommons.org/ns#"
   xmlns:rdf="http://www.w3.org/1999/02/22-rdf-syntax-ns#"
   xmlns:svg="http://www.w3.org/2000/svg"
   xmlns="http://www.w3.org/2000/svg"
   xmlns:sodipodi="http://sodipodi.sourceforge.net/DTD/sodipodi-0.dtd"
   xmlns:inkscape="http://www.inkscape.org/namespaces/inkscape"
   width="30.465811"
   height="21.838589"
   viewBox="0 0 30.465811 21.838589"
   version="1.1"
   id="svg953"
   sodipodi:docname="encryption-key-variants.svg"
   inkscape:version="0.92.4 (5da689c313, 2019-01-14)">
  <metadata
     id="metadata959">
    <rdf:RDF>
      <cc:Work
         rdf:about="">
        <dc:format>image/svg+xml</dc:format>
        <dc:type
           rdf:resource="http://purl.org/dc/dcmitype/StillImage" />
        <dc:title></dc:title>
      </cc:Work>
    </rdf:RDF>
  </metadata>
  <defs
     id="defs957" />
  <sodipodi:namedview
     pagecolor="#ffffff"
     bordercolor="#666666"
     borderopacity="1"
     objecttolerance="10"
     gridtolerance="10"
     guidetolerance="10"
     inkscape:pageopacity="0"
     inkscape:pageshadow="2"
     inkscape:window-width="1680"
     inkscape:window-height="986"
     id="namedview955"
     showgrid="false"
     inkscape:zoom="23.53125"
     inkscape:cx="15.398264"
     inkscape:cy="11.428002"
     inkscape:window-x="0"
     inkscape:window-y="27"
     inkscape:window-maximized="1"
     inkscape:current-layer="svg953"
     fit-margin-top="0"
     fit-margin-left="0"
     fit-margin-right="0"
     fit-margin-bottom="0" />
  <path
     inkscape:connector-curvature="0"
     style="fill:#12bc00"
     d="m 4.83055,10.002323 a 0.83,0.83 0 0 1 -0.6,-0.2499999 l -2.5,-2.5 a 0.83438601,0.83438601 0 0 1 1.18,-1.18 l 1.8,1.8 5.28,-7.51999977 a 0.83234614,0.83234614 0 0 1 1.36,0.96000017 l -5.84,8.3299996 a 0.83,0.83 0 0 1 -0.68,0.3599999 z"
     id="path1009" />
  <g
     transform="translate(13.549305,-5.7704788)"
     id="g3234">
    <path
       style="fill:#ffbf00"
       inkscape:connector-curvature="0"
       id="path993"
       d="m 15.82,14.13 -3.2,-6.41 a 1.28,1.28 0 0 0 -2.3,0 l -3.18,6.4 A 1.3,1.3 0 0 0 8.29,16 h 6.38 a 1.3,1.3 0 0 0 1.15,-1.87 z" />
    <path
       style="opacity:0.35;fill:#d76e00"
       inkscape:connector-curvature="0"
       id="path995"
       d="m 11.48,8 a 0.27,0.27 0 0 1 0.25,0.16 l 3.2,6.41 A 0.3,0.3 0 0 1 14.91,14.87 0.28,0.28 0 0 1 14.67,15 H 8.29 A 0.28,0.28 0 0 1 8.05,14.86 0.29,0.29 0 0 1 8.03,14.57 l 3.2,-6.4 A 0.27,0.27 0 0 1 11.48,8 m 0,-1 a 1.27,1.27 0 0 0 -1.15,0.72 l -3.2,6.4 A 1.3,1.3 0 0 0 8.3,16 h 6.38 a 1.3,1.3 0 0 0 1.15,-1.87 L 12.63,7.72 A 1.27,1.27 0 0 0 11.49,7 Z" />
    <path
       style="fill:#ffffff"
       inkscape:connector-curvature="0"
       id="path997"
       d="M 11.5,12 A 0.5,0.5 0 0 0 12,11.5 v -2 a 0.5,0.5 0 0 0 -1,0 v 2 a 0.5,0.5 0 0 0 0.5,0.5 z m 0,0.8 a 0.7,0.7 0 1 0 0.7,0.7 0.7,0.7 0 0 0 -0.7,-0.7 z" />
  </g>
  <path
     inkscape:connector-curvature="0"
     style="fill:#0a84ff"
     d="m 4.5,21.838589 c -6,0 -6,-9.000001 0,-9.000001 6,0 6,9.000001 0,9.000001 z m 0.52,-2.25 c 0,-0.69 -1.04,-0.69 -1.04,0 0,0.69 1.04,0.69 1.04,0 z m -1.2,-3.38 c 0,-0.33 0.29,-0.67 0.68,-0.67 0.39,0 0.68,0.34 0.68,0.68 a 0.8,0.8 0 0 1 -0.18,0.43 c -0.08,0.1 -0.17,0.2 -0.26,0.27 l -0.12,0.1 -0.33,0.37 a 1.46,1.46 0 0 0 -0.24,0.85 c 0,0.6 0.9,0.6 0.9,0 0,-0.2 0.05,-0.3 0.09,-0.34 a 0.69,0.69 0 0 1 0.09,-0.11 l 0.06,-0.06 0.08,-0.08 0.04,-0.03 c 0.14,-0.12 0.27,-0.27 0.4,-0.41 0.17,-0.23 0.37,-0.57 0.37,-1 a 1.58,1.57 0 0 0 -3.16,0 c 0,0.6 0.9,0.6 0.9,0 z"
     id="path981" />
  <g
     id="g3299"
     transform="translate(16.946677,0.49195303)">
    <path
       id="path963"
       d="m 13.377446,19.068353 -3.2,-6.41 a 1.28,1.28 0 0 0 -2.2999998,0 l -3.18,6.4 a 1.3,1.3 0 0 0 1.15,1.88 h 6.3799998 a 1.3,1.3 0 0 0 1.15,-1.87 z"
       style="fill:#ff0000"
       inkscape:connector-curvature="0" />
    <path
       id="path965"
       d="m 9.0374462,12.938353 a 0.27,0.27 0 0 1 0.25,0.16 l 3.1999998,6.41 a 0.3,0.3 0 0 1 -0.02,0.3 0.28,0.28 0 0 1 -0.24,0.13 H 5.8474462 a 0.28,0.28 0 0 1 -0.24,-0.14 0.29,0.29 0 0 1 -0.02,-0.29 l 3.2,-6.4 a 0.27,0.27 0 0 1 0.25,-0.17 m 0,-1 a 1.27,1.27 0 0 0 -1.15,0.72 l -3.2,6.4 a 1.3,1.3 0 0 0 1.17,1.88 h 6.3799998 a 1.3,1.3 0 0 0 1.15,-1.87 l -3.2,-6.41 a 1.27,1.27 0 0 0 -1.1399998,-0.72 z"
       style="opacity:0.35;fill:#690000"
       inkscape:connector-curvature="0" />
    <path
       id="path967"
       d="m 9.0574462,16.938353 a 0.5,0.5 0 0 0 0.5,-0.5 v -2 a 0.5,0.5 0 0 0 -1,0 v 2 a 0.5,0.5 0 0 0 0.5,0.5 z m 0,0.8 a 0.7,0.7 0 1 0 0.7,0.7 0.7,0.7 0 0 0 -0.7,-0.7 z"
       style="fill:#ffffff"
       inkscape:connector-curvature="0" />
  </g>
</svg>
